<svg xmlns="http://www.w3.org/2000/svg" viewBox="0 0 200 200">
  <circle cx="100" cy="100" r="100" fill="#081A1A"/>
  <circle cx="100" cy="100" r="90" fill="none" stroke="#00BFA5" stroke-width="2" opacity="0.4"/>
  <!-- Center node -->
  <circle cx="100" cy="100" r="16" fill="#00BFA5" opacity="0.9"/>
  <circle cx="100" cy="100" r="8" fill="#ffffff"/>
  <!-- Routing lines with arrows -->
  <line x1="100" y1="84" x2="100" y2="45" stroke="#00BFA5" stroke-width="2.5"/>
  <polygon points="100,38 94,52 106,52" fill="#00BFA5"/>
  <line x1="100" y1="116" x2="100" y2="155" stroke="#00BFA5" stroke-width="2.5"/>
  <polygon points="100,162 94,148 106,148" fill="#00BFA5"/>
  <line x1="84" y1="100" x2="45" y2="100" stroke="#00BFA5" stroke-width="2.5"/>
  <polygon points="38,100 52,94 52,106" fill="#00BFA5"/>
  <line x1="116" y1="100" x2="155" y2="100" stroke="#00BFA5" stroke-width="2.5"/>
  <polygon points="162,100 148,94 148,106" fill="#00BFA5"/>
  <!-- Diagonal lines -->
  <line x1="111" y1="89" x2="140" y2="60" stroke="#00BFA5" stroke-width="1.5" opacity="0.5"/>
  <line x1="89" y1="111" x2="60" y2="140" stroke="#00BFA5" stroke-width="1.5" opacity="0.5"/>
</svg>
