<svg xmlns="http://www.w3.org/2000/svg" viewBox="0 0 24 24" fill="none" stroke="currentColor" stroke-width="1.5" stroke-linecap="round" stroke-linejoin="round">
  <!-- Large gear -->
  <circle cx="9" cy="12" r="3"/>
  <path d="M9 7v-1M9 18v-1M5.5 8.5l-.7-.7M13.2 16.2l-.7-.7M4 12H3M16 12h-1M5.5 15.5l-.7.7M13.2 7.8l-.7.7"/>
  <!-- Small gear -->
  <circle cx="17" cy="8" r="2"/>
  <path d="M17 4.5V5M17 11v.5M14.5 6l-.4-.4M19.9 10.4l-.4-.4M14 8h-.5M20.5 8H20M14.5 10l-.4.4M19.9 5.6l-.4.4"/>
  <!-- Link -->
  <path d="M11.5 10.5l3-1" opacity="0.4"/>
</svg>
